<?xml version="1.0" encoding="utf-8"?>
<!-- Uploaded to: SVG Repo, www.svgrepo.com, Generator: SVG Repo Mixer Tools -->
<svg width="800px" height="800px" viewBox="0 0 1024 1024" class="icon"  version="1.1" xmlns="http://www.w3.org/2000/svg"><path d="M695.44 719.84c0 124.22-68.93 224.92-170.68 224.92s-184.25-100.7-184.25-224.92S419.48 460 510.4 461.42c103.68 1.58 185.04 134.2 185.04 258.42z" fill="#FFFFFF" /><path d="M524.75 956.73c-112.15 0-203.39-109.49-203.39-244.06 0-85.86 36.29-179.28 90.3-232.46 30.5-30 64.74-45.55 99-45.1 120.16 1.84 203.89 147.75 203.89 277.56 0.03 139.13-81.55 244.06-189.8 244.06zM509 473.38c-29.59 0-54.62 18.49-70.48 34.11-47.18 46.45-78.88 128.91-78.88 205.18 0 113.47 74.06 205.78 165.1 205.78 86.39 0 151.54-88.47 151.54-205.78 0-109.48-72.6-237.85-166.2-239.28z" fill="#FFA80A" /><path d="M674.71 637.62c-61.29-5.1-217.43-124.33-235-137.91l23.39-30.31c63 48.62 177.1 126.93 214.82 130.07zM693.61 765.22c-86.13-8.29-302.68-168.9-327.09-187.22l23-30.64c64 47.9 243.9 173.57 307.8 179.71zM653.9 857.74C502 844.54 341 686.71 334.21 680l26.93-27.21c1.57 1.55 158 154.82 296.07 166.82zM603.9 926.41c-103.53-3.34-260.73-115.26-267.37-120l22.31-31.11c1.53 1.09 154.38 109.91 246.3 112.87z" fill="#FFA80A" /><path d="M360.44 631.24l-3.18-38.15C395 589.94 509.05 511.63 572.08 463l23.39 30.31c-17.6 13.59-173.74 132.83-235.03 137.93zM341.54 758.84l-3.66-38.12c63.92-6.14 243.86-131.8 307.8-179.71l23 30.64c-24.46 18.29-241.01 178.91-327.14 187.19zM381.26 851.37l-3.33-38.13C516 801.22 672.43 648 674 646.41l26.93 27.21c-6.78 6.71-167.78 164.53-319.67 177.75zM431.25 920L430 881.76c92-3 244.76-111.77 246.28-112.86l22.34 31.1c-6.62 4.77-163.84 116.69-267.37 120z" fill="#FFA80A" /><path d="M309.42 358.2s79.5 149.14 204.24 145.18S710 399.07 710 399.07s-84.64 13.63-138.72 59.34c0 0 125.35-82.06 139.41-169.17 0 0-124.38 62.58-158 139.42 0 0 120.69-189.74 123.18-266.51 0 0-95.8 59.15-116.88 173.33 0 0 25.29-152.39 17.17-268.21 0 0-58.08 88.29-58.92 265.86 0 0-32.46-118.56-67.79-174.11 0 0 14.47 121 49.94 234.91 0 0-55.59-105.06-130.37-148.11 0 0 49.55 125.85 96.16 176.09-0.04 0-89.74-65.48-155.76-63.71z" fill="#77AB33" /><path d="M513.001414 571.999514l21.001072 21.001072-21.001072 21.001071-21.001071-21.001071 21.001071-21.001072Z" fill="#3C4835" /><path d="M413.004172 631.627162l21.361695 21.361696-21.361695 21.361696-21.361696-21.361696 21.361696-21.361696Z" fill="#3C4835" /><path d="M617.86488 631.804444l21.341376 19.0546-19.054599 21.341376-21.341377-19.0546 19.0546-21.341376Z" fill="#3C4835" /><path d="M509.337126 700.108212l26.549468 21.23972-21.23972 26.549469-26.549468-21.239721 21.23972-26.549468Z" fill="#3C4835" /><path d="M407.893077 761.114219l17.956455 15.802916-15.802916 17.956454-17.956455-15.802916 15.802916-17.956454Z" fill="#3C4835" /><path d="M507.822227 821.767396l17.399977 13.050031-13.050031 17.399977-17.399977-13.050031 13.050031-17.399977Z" fill="#3C4835" /><path d="M618.002828 761.469015l16.525086 16.525086-16.525086 16.525085-16.525085-16.525085 16.525085-16.525086Z" fill="#3C4835" /><path d="M593.175826 520.26756l16.021948 11.445229-11.445229 16.021949-16.021948-11.44523 11.445229-16.021948Z" fill="#3C4835" /><path d="M438.127356 516.215064l12.621843 16.933502-16.933502 12.621843-12.621843-16.933502 16.933502-12.621843Z" fill="#3C4835" /><path d="M609.588986 861.47521l8.445 14.627169-14.627169 8.445-8.445-14.627169 14.627169-8.445Z" fill="#3C4835" /></svg>